<svg xmlns="http://www.w3.org/2000/svg" xmlns:xlink="http://www.w3.org/1999/xlink" width="2000" height="2000" preserveAspectRatio="xMidYMid meet" version="1.0" viewBox="0 0 1500 1500" zoomAndPan="magnify"><defs><clipPath id="834f798cf8"><path d="M 1102.125 141.84375 L 1244.640625 141.84375 L 1244.640625 1358.214844 L 1102.125 1358.214844 Z M 1102.125 141.84375" clip-rule="nonzero"/></clipPath><clipPath id="e1a2a64200"><path d="M 1139.625 141.84375 L 1207.140625 141.84375 C 1217.085938 141.84375 1226.621094 145.792969 1233.65625 152.824219 C 1240.6875 159.859375 1244.640625 169.394531 1244.640625 179.34375 L 1244.640625 1320.65625 C 1244.640625 1330.601562 1240.6875 1340.140625 1233.65625 1347.175781 C 1226.621094 1354.207031 1217.085938 1358.15625 1207.140625 1358.15625 L 1139.625 1358.15625 C 1129.679688 1358.15625 1120.140625 1354.207031 1113.109375 1347.175781 C 1106.078125 1340.140625 1102.125 1330.601562 1102.125 1320.65625 L 1102.125 179.34375 C 1102.125 169.394531 1106.078125 159.859375 1113.109375 152.824219 C 1120.140625 145.792969 1129.679688 141.84375 1139.625 141.84375 Z M 1139.625 141.84375" clip-rule="nonzero"/></clipPath><clipPath id="10bb820bd8"><path d="M 0.125 0.84375 L 142.640625 0.84375 L 142.640625 1217.160156 L 0.125 1217.160156 Z M 0.125 0.84375" clip-rule="nonzero"/></clipPath><clipPath id="f95918a5c5"><path d="M 37.625 0.84375 L 105.140625 0.84375 C 115.085938 0.84375 124.621094 4.792969 131.65625 11.824219 C 138.6875 18.859375 142.640625 28.394531 142.640625 38.34375 L 142.640625 1179.65625 C 142.640625 1189.601562 138.6875 1199.140625 131.65625 1206.175781 C 124.621094 1213.207031 115.085938 1217.15625 105.140625 1217.15625 L 37.625 1217.15625 C 27.679688 1217.15625 18.140625 1213.207031 11.109375 1206.175781 C 4.078125 1199.140625 0.125 1189.601562 0.125 1179.65625 L 0.125 38.34375 C 0.125 28.394531 4.078125 18.859375 11.109375 11.824219 C 18.140625 4.792969 27.679688 0.84375 37.625 0.84375 Z M 37.625 0.84375" clip-rule="nonzero"/></clipPath><clipPath id="87603891d9"><rect width="143" height="1218" x="0" y="0"/></clipPath><clipPath id="748add8080"><path d="M 255.359375 842.375 L 397.875 842.375 L 397.875 1358.429688 L 255.359375 1358.429688 Z M 255.359375 842.375" clip-rule="nonzero"/></clipPath><clipPath id="f2e8bbe589"><path d="M 397.875 879.875 L 397.875 1320.582031 C 397.875 1330.527344 393.921875 1340.066406 386.890625 1347.097656 C 379.859375 1354.132812 370.320312 1358.082031 360.375 1358.082031 L 292.859375 1358.082031 C 282.914062 1358.082031 273.378906 1354.132812 266.34375 1347.097656 C 259.3125 1340.066406 255.359375 1330.527344 255.359375 1320.582031 L 255.359375 879.875 C 255.359375 869.929688 259.3125 860.394531 266.34375 853.359375 C 273.378906 846.328125 282.914062 842.375 292.859375 842.375 L 360.375 842.375 C 370.320312 842.375 379.859375 846.328125 386.890625 853.359375 C 393.921875 860.394531 397.875 869.929688 397.875 879.875 Z M 397.875 879.875" clip-rule="nonzero"/></clipPath><clipPath id="b7e3b8dcc7"><path d="M 0.359375 0.375 L 142.875 0.375 L 142.875 516 L 0.359375 516 Z M 0.359375 0.375" clip-rule="nonzero"/></clipPath><clipPath id="48e70255bd"><path d="M 142.875 37.875 L 142.875 478.582031 C 142.875 488.527344 138.921875 498.066406 131.890625 505.097656 C 124.859375 512.132812 115.320312 516.082031 105.375 516.082031 L 37.859375 516.082031 C 27.914062 516.082031 18.378906 512.132812 11.34375 505.097656 C 4.3125 498.066406 0.359375 488.527344 0.359375 478.582031 L 0.359375 37.875 C 0.359375 27.929688 4.3125 18.394531 11.34375 11.359375 C 18.378906 4.328125 27.914062 0.375 37.859375 0.375 L 105.375 0.375 C 115.320312 0.375 124.859375 4.328125 131.890625 11.359375 C 138.921875 18.394531 142.875 27.929688 142.875 37.875 Z M 142.875 37.875" clip-rule="nonzero"/></clipPath><clipPath id="a8bfd997fc"><rect width="143" height="517" x="0" y="0"/></clipPath><clipPath id="3cd77fde80"><path d="M 461.875 640.09375 L 1037.875 640.09375 L 1037.875 1240.09375 L 461.875 1240.09375 Z M 461.875 640.09375" clip-rule="nonzero"/></clipPath><clipPath id="3cbb0e3599"><path d="M 274.882812 1215.640625 L 1151.671875 1215.640625 L 1151.671875 1358.152344 L 274.882812 1358.152344 Z M 274.882812 1215.640625" clip-rule="nonzero"/></clipPath><clipPath id="1b5f156f91"><path d="M 274.882812 1341.652344 L 274.882812 1232.140625 C 274.882812 1223.027344 282.269531 1215.640625 291.382812 1215.640625 L 1135.125 1215.640625 C 1144.238281 1215.640625 1151.625 1223.027344 1151.625 1232.140625 L 1151.625 1341.652344 C 1151.625 1350.765625 1144.238281 1358.152344 1135.125 1358.152344 L 291.382812 1358.152344 C 282.269531 1358.152344 274.882812 1350.765625 274.882812 1341.652344 Z M 274.882812 1341.652344" clip-rule="nonzero"/></clipPath><clipPath id="a1214c12ba"><path d="M 0.882812 0.640625 L 877.671875 0.640625 L 877.671875 143.152344 L 0.882812 143.152344 Z M 0.882812 0.640625" clip-rule="nonzero"/></clipPath><clipPath id="d2a5fdc9dd"><path d="M 0.882812 126.652344 L 0.882812 17.140625 C 0.882812 8.027344 8.269531 0.640625 17.382812 0.640625 L 861.125 0.640625 C 870.238281 0.640625 877.625 8.027344 877.625 17.140625 L 877.625 126.652344 C 877.625 135.765625 870.238281 143.152344 861.125 143.152344 L 17.382812 143.152344 C 8.269531 143.152344 0.882812 135.765625 0.882812 126.652344 Z M 0.882812 126.652344" clip-rule="nonzero"/></clipPath><clipPath id="0d26dabdd3"><rect width="878" height="144" x="0" y="0"/></clipPath></defs><g clip-path="url(#834f798cf8)"><g clip-path="url(#e1a2a64200)"><g><g clip-path="url(#87603891d9)" transform="matrix(1, 0, 0, 1, 1102, 141)"><g clip-path="url(#10bb820bd8)"><g clip-path="url(#f95918a5c5)"><path fill="#fff" fill-opacity="1" fill-rule="nonzero" d="M 0.125 0.84375 L 142.640625 0.84375 L 142.640625 1217.214844 L 0.125 1217.214844 Z M 0.125 0.84375"/></g></g></g></g></g></g><g clip-path="url(#748add8080)"><g clip-path="url(#f2e8bbe589)"><g><g clip-path="url(#a8bfd997fc)" transform="matrix(1, 0, 0, 1, 255, 842)"><g clip-path="url(#b7e3b8dcc7)"><g clip-path="url(#48e70255bd)"><path fill="#fff" fill-opacity="1" fill-rule="nonzero" d="M 0.359375 0.375 L 142.875 0.375 L 142.875 515.875 L 0.359375 515.875 Z M 0.359375 0.375"/></g></g></g></g></g></g><g clip-path="url(#3cd77fde80)"><path fill="#b2b2b2" fill-opacity="1" fill-rule="nonzero" d="M 1008.503906 1084.882812 L 491.492188 1084.882812 C 475.214844 1084.882812 461.898438 1098.199219 461.898438 1114.476562 L 461.898438 1210.5 C 461.898438 1226.777344 475.214844 1240.09375 491.492188 1240.09375 L 1008.503906 1240.09375 C 1024.78125 1240.09375 1038.097656 1226.777344 1038.097656 1210.5 L 1038.097656 1114.476562 C 1038.097656 1098.203125 1024.78125 1084.882812 1008.503906 1084.882812 Z M 534.304688 1181.351562 C 523.886719 1181.351562 515.441406 1172.90625 515.441406 1162.488281 C 515.441406 1152.070312 523.886719 1143.625 534.304688 1143.625 C 544.722656 1143.625 553.167969 1152.070312 553.167969 1162.488281 C 553.167969 1172.90625 544.722656 1181.351562 534.304688 1181.351562 Z M 600.3125 1181.351562 C 589.894531 1181.351562 581.449219 1172.90625 581.449219 1162.488281 C 581.449219 1152.070312 589.894531 1143.625 600.3125 1143.625 C 610.730469 1143.625 619.175781 1152.070312 619.175781 1162.488281 C 619.175781 1172.90625 610.730469 1181.351562 600.3125 1181.351562 Z M 666.320312 1181.351562 C 655.902344 1181.351562 647.457031 1172.90625 647.457031 1162.488281 C 647.457031 1152.070312 655.902344 1143.625 666.320312 1143.625 C 676.738281 1143.625 685.183594 1152.070312 685.183594 1162.488281 C 685.183594 1172.90625 676.738281 1181.351562 666.320312 1181.351562 Z M 960.199219 1172.183594 L 793.664062 1172.183594 C 788.308594 1172.183594 783.964844 1167.84375 783.964844 1162.488281 C 783.964844 1157.132812 788.308594 1152.792969 793.664062 1152.792969 L 960.199219 1152.792969 C 965.554688 1152.792969 969.898438 1157.132812 969.898438 1162.488281 C 969.898438 1167.84375 965.554688 1172.183594 960.199219 1172.183594 Z M 960.199219 814.691406 L 960.199219 843.09375 L 539.792969 843.09375 L 539.792969 814.691406 Z M 1008.503906 640.09375 L 491.492188 640.09375 C 475.214844 640.09375 461.898438 653.410156 461.898438 669.683594 L 461.898438 765.707031 C 461.898438 781.984375 475.214844 795.300781 491.492188 795.300781 L 1008.503906 795.300781 C 1024.78125 795.300781 1038.097656 781.984375 1038.097656 765.707031 L 1038.097656 669.683594 C 1038.097656 653.410156 1024.78125 640.09375 1008.503906 640.09375 Z M 534.304688 736.558594 C 523.886719 736.558594 515.441406 728.113281 515.441406 717.695312 C 515.441406 707.277344 523.886719 698.832031 534.304688 698.832031 C 544.722656 698.832031 553.167969 707.277344 553.167969 717.695312 C 553.167969 728.113281 544.722656 736.558594 534.304688 736.558594 Z M 600.3125 736.558594 C 589.894531 736.558594 581.449219 728.113281 581.449219 717.695312 C 581.449219 707.277344 589.894531 698.832031 600.3125 698.832031 C 610.730469 698.832031 619.175781 707.277344 619.175781 717.695312 C 619.175781 728.113281 610.730469 736.558594 600.3125 736.558594 Z M 666.320312 736.558594 C 655.902344 736.558594 647.457031 728.113281 647.457031 717.695312 C 647.457031 707.277344 655.902344 698.832031 666.320312 698.832031 C 676.738281 698.832031 685.183594 707.277344 685.183594 717.695312 C 685.183594 728.113281 676.738281 736.558594 666.320312 736.558594 Z M 960.199219 727.394531 L 793.664062 727.394531 C 788.308594 727.394531 783.964844 723.050781 783.964844 717.695312 C 783.964844 712.339844 788.308594 708 793.664062 708 L 960.199219 708 C 965.554688 708 969.898438 712.339844 969.898438 717.695312 C 969.898438 723.050781 965.554688 727.394531 960.199219 727.394531 Z M 1008.503906 862.488281 L 491.492188 862.488281 C 475.214844 862.488281 461.898438 875.804688 461.898438 892.082031 L 461.898438 988.101562 C 461.898438 1004.378906 475.214844 1017.695312 491.492188 1017.695312 L 1008.503906 1017.695312 C 1024.78125 1017.695312 1038.097656 1004.378906 1038.097656 988.101562 L 1038.097656 892.082031 C 1038.097656 875.804688 1024.78125 862.488281 1008.503906 862.488281 Z M 534.304688 958.957031 C 523.886719 958.957031 515.441406 950.511719 515.441406 940.09375 C 515.441406 929.675781 523.886719 921.230469 534.304688 921.230469 C 544.722656 921.230469 553.167969 929.675781 553.167969 940.09375 C 553.167969 950.511719 544.722656 958.957031 534.304688 958.957031 Z M 600.3125 958.957031 C 589.894531 958.957031 581.449219 950.511719 581.449219 940.09375 C 581.449219 929.675781 589.894531 921.230469 600.3125 921.230469 C 610.730469 921.230469 619.175781 929.675781 619.175781 940.09375 C 619.175781 950.511719 610.730469 958.957031 600.3125 958.957031 Z M 666.320312 958.957031 C 655.902344 958.957031 647.457031 950.511719 647.457031 940.09375 C 647.457031 929.675781 655.902344 921.230469 666.320312 921.230469 C 676.738281 921.230469 685.183594 929.675781 685.183594 940.09375 C 685.183594 950.511719 676.738281 958.957031 666.320312 958.957031 Z M 960.199219 949.789062 L 793.664062 949.789062 C 788.308594 949.789062 783.964844 945.449219 783.964844 940.09375 C 783.964844 934.738281 788.308594 930.394531 793.664062 930.394531 L 960.199219 930.394531 C 965.554688 930.394531 969.898438 934.738281 969.898438 940.09375 C 969.898438 945.449219 965.554688 949.789062 960.199219 949.789062 Z M 960.199219 1037.089844 L 960.199219 1065.492188 L 539.792969 1065.492188 L 539.792969 1037.089844 Z M 960.199219 1037.089844"/></g><g clip-path="url(#3cbb0e3599)"><g clip-path="url(#1b5f156f91)"><g><g clip-path="url(#0d26dabdd3)" transform="matrix(1, 0, 0, 1, 274, 1215)"><g clip-path="url(#a1214c12ba)"><g clip-path="url(#d2a5fdc9dd)"><path fill="#fff" fill-opacity="1" fill-rule="nonzero" d="M 0.882812 143.152344 L 0.882812 0.640625 L 877.671875 0.640625 L 877.671875 143.152344 Z M 0.882812 143.152344"/></g></g></g></g></g></g></svg>