<svg xmlns="http://www.w3.org/2000/svg" xmlns:xlink="http://www.w3.org/1999/xlink" width="800" zoomAndPan="magnify" viewBox="0 0 600 374.999991" height="500" preserveAspectRatio="xMidYMid meet" version="1.0"><defs><g/><clipPath id="dc145ba553"><path d="M 359.511719 43.515625 L 383.527344 43.515625 L 383.527344 248.464844 L 359.511719 248.464844 Z M 359.511719 43.515625 " clip-rule="nonzero"/></clipPath><clipPath id="81dcd4de5a"><path d="M 365.832031 43.515625 L 377.207031 43.515625 C 378.882812 43.515625 380.492188 44.179688 381.675781 45.363281 C 382.859375 46.550781 383.527344 48.15625 383.527344 49.832031 L 383.527344 242.144531 C 383.527344 243.820312 382.859375 245.425781 381.675781 246.613281 C 380.492188 247.796875 378.882812 248.464844 377.207031 248.464844 L 365.832031 248.464844 C 364.15625 248.464844 362.546875 247.796875 361.363281 246.613281 C 360.179688 245.425781 359.511719 243.820312 359.511719 242.144531 L 359.511719 49.832031 C 359.511719 48.15625 360.179688 46.550781 361.363281 45.363281 C 362.546875 44.179688 364.15625 43.515625 365.832031 43.515625 Z M 365.832031 43.515625 " clip-rule="nonzero"/></clipPath><clipPath id="783e2e7bf6"><path d="M 365.832031 43.515625 L 377.207031 43.515625 C 378.882812 43.515625 380.492188 44.179688 381.675781 45.363281 C 382.859375 46.550781 383.527344 48.15625 383.527344 49.832031 L 383.527344 242.144531 C 383.527344 243.820312 382.859375 245.425781 381.675781 246.613281 C 380.492188 247.796875 378.882812 248.464844 377.207031 248.464844 L 365.832031 248.464844 C 364.15625 248.464844 362.546875 247.796875 361.363281 246.613281 C 360.179688 245.425781 359.511719 243.820312 359.511719 242.144531 L 359.511719 49.832031 C 359.511719 48.15625 360.179688 46.550781 361.363281 45.363281 C 362.546875 44.179688 364.15625 43.515625 365.832031 43.515625 Z M 365.832031 43.515625 " clip-rule="nonzero"/></clipPath><clipPath id="55a9f63c2e"><path d="M 216.832031 161.554688 L 240.847656 161.554688 L 240.847656 248.4375 L 216.832031 248.4375 Z M 216.832031 161.554688 " clip-rule="nonzero"/></clipPath><clipPath id="6bad74d09f"><path d="M 240.847656 167.871094 L 240.847656 242.132812 C 240.847656 243.808594 240.179688 245.414062 238.996094 246.601562 C 237.8125 247.785156 236.203125 248.449219 234.527344 248.449219 L 223.152344 248.449219 C 221.476562 248.449219 219.867188 247.785156 218.683594 246.601562 C 217.5 245.414062 216.832031 243.808594 216.832031 242.132812 L 216.832031 167.871094 C 216.832031 166.195312 217.5 164.589844 218.683594 163.40625 C 219.867188 162.21875 221.476562 161.554688 223.152344 161.554688 L 234.527344 161.554688 C 236.203125 161.554688 237.8125 162.21875 238.996094 163.40625 C 240.179688 164.589844 240.847656 166.195312 240.847656 167.871094 Z M 240.847656 167.871094 " clip-rule="nonzero"/></clipPath><clipPath id="14e24f5160"><path d="M 240.847656 167.871094 L 240.847656 242.132812 C 240.847656 243.808594 240.179688 245.414062 238.996094 246.601562 C 237.8125 247.785156 236.203125 248.449219 234.527344 248.449219 L 223.152344 248.449219 C 221.476562 248.449219 219.867188 247.785156 218.683594 246.601562 C 217.5 245.414062 216.832031 243.808594 216.832031 242.132812 L 216.832031 167.871094 C 216.832031 166.195312 217.5 164.589844 218.683594 163.40625 C 219.867188 162.21875 221.476562 161.554688 223.152344 161.554688 L 234.527344 161.554688 C 236.203125 161.554688 237.8125 162.21875 238.996094 163.40625 C 240.179688 164.589844 240.847656 166.195312 240.847656 167.871094 Z M 240.847656 167.871094 " clip-rule="nonzero"/></clipPath><clipPath id="0ac587d463"><path d="M 251.628906 127.46875 L 348.6875 127.46875 L 348.6875 228.570312 L 251.628906 228.570312 Z M 251.628906 127.46875 " clip-rule="nonzero"/></clipPath><clipPath id="1f7ba1b847"><path d="M 220.121094 224.449219 L 367.863281 224.449219 L 367.863281 248.460938 L 220.121094 248.460938 Z M 220.121094 224.449219 " clip-rule="nonzero"/></clipPath><clipPath id="18044d5ae4"><path d="M 220.121094 245.683594 L 220.121094 227.230469 C 220.121094 225.695312 221.367188 224.449219 222.902344 224.449219 L 365.074219 224.449219 C 366.609375 224.449219 367.851562 225.695312 367.851562 227.230469 L 367.851562 245.683594 C 367.851562 247.21875 366.609375 248.460938 365.074219 248.460938 L 222.902344 248.460938 C 221.367188 248.460938 220.121094 247.21875 220.121094 245.683594 Z M 220.121094 245.683594 " clip-rule="nonzero"/></clipPath><clipPath id="7349e92c22"><path d="M 220.121094 245.683594 L 220.121094 227.230469 C 220.121094 225.695312 221.367188 224.449219 222.902344 224.449219 L 365.074219 224.449219 C 366.609375 224.449219 367.851562 225.695312 367.851562 227.230469 L 367.851562 245.683594 C 367.851562 247.21875 366.609375 248.460938 365.074219 248.460938 L 222.902344 248.460938 C 221.367188 248.460938 220.121094 247.21875 220.121094 245.683594 Z M 220.121094 245.683594 " clip-rule="nonzero"/></clipPath></defs><g clip-path="url(#dc145ba553)"><g clip-path="url(#81dcd4de5a)"><g clip-path="url(#783e2e7bf6)"><path fill="#ffffff" d="M 359.511719 43.515625 L 383.527344 43.515625 L 383.527344 248.472656 L 359.511719 248.472656 Z M 359.511719 43.515625 " fill-opacity="1" fill-rule="nonzero"/></g></g></g><g clip-path="url(#55a9f63c2e)"><g clip-path="url(#6bad74d09f)"><g clip-path="url(#14e24f5160)"><path fill="#ffffff" d="M 216.832031 161.554688 L 240.847656 161.554688 L 240.847656 248.414062 L 216.832031 248.414062 Z M 216.832031 161.554688 " fill-opacity="1" fill-rule="nonzero"/></g></g></g><g clip-path="url(#0ac587d463)"><path fill="#b2b2b2" d="M 343.738281 202.417969 L 256.621094 202.417969 C 253.878906 202.417969 251.632812 204.660156 251.632812 207.402344 L 251.632812 223.582031 C 251.632812 226.324219 253.878906 228.570312 256.621094 228.570312 L 343.738281 228.570312 C 346.480469 228.570312 348.722656 226.324219 348.722656 223.582031 L 348.722656 207.402344 C 348.722656 204.660156 346.480469 202.417969 343.738281 202.417969 Z M 263.835938 218.671875 C 262.078125 218.671875 260.65625 217.25 260.65625 215.492188 C 260.65625 213.738281 262.078125 212.316406 263.835938 212.316406 C 265.589844 212.316406 267.011719 213.738281 267.011719 215.492188 C 267.011719 217.25 265.589844 218.671875 263.835938 218.671875 Z M 274.957031 218.671875 C 273.203125 218.671875 271.777344 217.25 271.777344 215.492188 C 271.777344 213.738281 273.203125 212.316406 274.957031 212.316406 C 276.710938 212.316406 278.136719 213.738281 278.136719 215.492188 C 278.136719 217.25 276.710938 218.671875 274.957031 218.671875 Z M 286.078125 218.671875 C 284.324219 218.671875 282.902344 217.25 282.902344 215.492188 C 282.902344 213.738281 284.324219 212.316406 286.078125 212.316406 C 287.835938 212.316406 289.257812 213.738281 289.257812 215.492188 C 289.257812 217.25 287.835938 218.671875 286.078125 218.671875 Z M 335.597656 217.125 L 307.535156 217.125 C 306.632812 217.125 305.902344 216.394531 305.902344 215.492188 C 305.902344 214.589844 306.632812 213.859375 307.535156 213.859375 L 335.597656 213.859375 C 336.5 213.859375 337.234375 214.589844 337.234375 215.492188 C 337.234375 216.394531 336.5 217.125 335.597656 217.125 Z M 335.597656 156.890625 L 335.597656 161.675781 L 264.757812 161.675781 L 264.757812 156.890625 Z M 343.738281 127.46875 L 256.621094 127.46875 C 253.878906 127.46875 251.632812 129.714844 251.632812 132.457031 L 251.632812 148.636719 C 251.632812 151.378906 253.878906 153.621094 256.621094 153.621094 L 343.738281 153.621094 C 346.480469 153.621094 348.722656 151.378906 348.722656 148.636719 L 348.722656 132.457031 C 348.722656 129.714844 346.480469 127.46875 343.738281 127.46875 Z M 263.835938 143.722656 C 262.078125 143.722656 260.65625 142.300781 260.65625 140.546875 C 260.65625 138.789062 262.078125 137.367188 263.835938 137.367188 C 265.589844 137.367188 267.011719 138.789062 267.011719 140.546875 C 267.011719 142.300781 265.589844 143.722656 263.835938 143.722656 Z M 274.957031 143.722656 C 273.203125 143.722656 271.777344 142.300781 271.777344 140.546875 C 271.777344 138.789062 273.203125 137.367188 274.957031 137.367188 C 276.710938 137.367188 278.136719 138.789062 278.136719 140.546875 C 278.136719 142.300781 276.710938 143.722656 274.957031 143.722656 Z M 286.078125 143.722656 C 284.324219 143.722656 282.902344 142.300781 282.902344 140.546875 C 282.902344 138.789062 284.324219 137.367188 286.078125 137.367188 C 287.835938 137.367188 289.257812 138.789062 289.257812 140.546875 C 289.257812 142.300781 287.835938 143.722656 286.078125 143.722656 Z M 335.597656 142.179688 L 307.535156 142.179688 C 306.632812 142.179688 305.902344 141.449219 305.902344 140.546875 C 305.902344 139.644531 306.632812 138.910156 307.535156 138.910156 L 335.597656 138.910156 C 336.5 138.910156 337.234375 139.644531 337.234375 140.546875 C 337.234375 141.449219 336.5 142.179688 335.597656 142.179688 Z M 343.738281 164.941406 L 256.621094 164.941406 C 253.878906 164.941406 251.632812 167.1875 251.632812 169.929688 L 251.632812 186.109375 C 251.632812 188.851562 253.878906 191.09375 256.621094 191.09375 L 343.738281 191.09375 C 346.480469 191.09375 348.722656 188.851562 348.722656 186.109375 L 348.722656 169.929688 C 348.722656 167.1875 346.480469 164.941406 343.738281 164.941406 Z M 263.835938 181.199219 C 262.078125 181.199219 260.65625 179.773438 260.65625 178.019531 C 260.65625 176.265625 262.078125 174.839844 263.835938 174.839844 C 265.589844 174.839844 267.011719 176.265625 267.011719 178.019531 C 267.011719 179.773438 265.589844 181.199219 263.835938 181.199219 Z M 274.957031 181.199219 C 273.203125 181.199219 271.777344 179.773438 271.777344 178.019531 C 271.777344 176.265625 273.203125 174.839844 274.957031 174.839844 C 276.710938 174.839844 278.136719 176.265625 278.136719 178.019531 C 278.136719 179.773438 276.710938 181.199219 274.957031 181.199219 Z M 286.078125 181.199219 C 284.324219 181.199219 282.902344 179.773438 282.902344 178.019531 C 282.902344 176.265625 284.324219 174.839844 286.078125 174.839844 C 287.835938 174.839844 289.257812 176.265625 289.257812 178.019531 C 289.257812 179.773438 287.835938 181.199219 286.078125 181.199219 Z M 335.597656 179.652344 L 307.535156 179.652344 C 306.632812 179.652344 305.902344 178.921875 305.902344 178.019531 C 305.902344 177.117188 306.632812 176.386719 307.535156 176.386719 L 335.597656 176.386719 C 336.5 176.386719 337.234375 177.117188 337.234375 178.019531 C 337.234375 178.921875 336.5 179.652344 335.597656 179.652344 Z M 335.597656 194.363281 L 335.597656 199.148438 L 264.757812 199.148438 L 264.757812 194.363281 Z M 335.597656 194.363281 " fill-opacity="1" fill-rule="nonzero"/></g><g clip-path="url(#1f7ba1b847)"><g clip-path="url(#18044d5ae4)"><g clip-path="url(#7349e92c22)"><path fill="#ffffff" d="M 220.121094 224.449219 L 367.859375 224.449219 L 367.859375 248.460938 L 220.121094 248.460938 Z M 220.121094 224.449219 " fill-opacity="1" fill-rule="nonzero"/></g></g></g><g fill="#ffffff" fill-opacity="1"><g transform="translate(138.445311, 317.750019)"><g><path d="M 62.15625 -28 C 62.15625 -24 61.378906 -20.222656 59.828125 -16.671875 C 58.285156 -13.128906 56.191406 -10.0625 53.546875 -7.46875 C 50.910156 -4.882812 47.78125 -2.847656 44.15625 -1.359375 C 40.53125 0.128906 36.640625 0.875 32.484375 0.875 C 28.367188 0.875 24.5 0.128906 20.875 -1.359375 C 17.25 -2.847656 14.113281 -4.882812 11.46875 -7.46875 C 8.832031 -10.0625 6.738281 -13.128906 5.1875 -16.671875 C 3.644531 -20.222656 2.875 -24 2.875 -28 C 2.875 -32 3.644531 -35.769531 5.1875 -39.3125 C 6.738281 -42.863281 8.832031 -45.929688 11.46875 -48.515625 C 14.113281 -51.109375 17.25 -53.148438 20.875 -54.640625 C 24.5 -56.128906 28.367188 -56.875 32.484375 -56.875 C 36.640625 -56.875 40.53125 -56.128906 44.15625 -54.640625 C 47.78125 -53.148438 50.910156 -51.109375 53.546875 -48.515625 C 56.191406 -45.929688 58.285156 -42.863281 59.828125 -39.3125 C 61.378906 -35.769531 62.15625 -32 62.15625 -28 Z M 50.234375 -28 C 50.234375 -30.613281 49.78125 -33.023438 48.875 -35.234375 C 47.96875 -37.453125 46.726562 -39.375 45.15625 -41 C 43.582031 -42.625 41.703125 -43.898438 39.515625 -44.828125 C 37.328125 -45.765625 34.984375 -46.234375 32.484375 -46.234375 C 29.972656 -46.234375 27.632812 -45.765625 25.46875 -44.828125 C 23.3125 -43.898438 21.445312 -42.625 19.875 -41 C 18.300781 -39.375 17.0625 -37.453125 16.15625 -35.234375 C 15.25 -33.023438 14.796875 -30.613281 14.796875 -28 C 14.796875 -25.4375 15.25 -23.035156 16.15625 -20.796875 C 17.0625 -18.554688 18.300781 -16.625 19.875 -15 C 21.445312 -13.375 23.3125 -12.09375 25.46875 -11.15625 C 27.632812 -10.226562 29.972656 -9.765625 32.484375 -9.765625 C 34.984375 -9.765625 37.328125 -10.226562 39.515625 -11.15625 C 41.703125 -12.09375 43.582031 -13.375 45.15625 -15 C 46.726562 -16.625 47.96875 -18.554688 48.875 -20.796875 C 49.78125 -23.035156 50.234375 -25.4375 50.234375 -28 Z M 50.234375 -28 "/></g></g></g><g fill="#ffffff" fill-opacity="1"><g transform="translate(203.47899, 317.750019)"><g><path d="M 4.3125 16.71875 L 4.3125 -41.6875 L 15.125 -41.6875 L 15.125 -38.234375 C 16.769531 -39.566406 18.609375 -40.566406 20.640625 -41.234375 C 22.671875 -41.898438 24.773438 -42.234375 26.953125 -42.234375 C 29.890625 -42.234375 32.648438 -41.671875 35.234375 -40.546875 C 37.828125 -39.429688 40.082031 -37.914062 42 -36 C 43.914062 -34.082031 45.421875 -31.816406 46.515625 -29.203125 C 47.609375 -26.585938 48.15625 -23.785156 48.15625 -20.796875 C 48.15625 -17.804688 47.59375 -15.003906 46.46875 -12.390625 C 45.351562 -9.785156 43.835938 -7.519531 41.921875 -5.59375 C 40.003906 -3.675781 37.722656 -2.171875 35.078125 -1.078125 C 32.441406 0.0117188 29.628906 0.5625 26.640625 0.5625 C 24.609375 0.5625 22.617188 0.277344 20.671875 -0.28125 C 18.734375 -0.84375 16.9375 -1.65625 15.28125 -2.71875 L 15.28125 16.71875 Z M 25.203125 -32.875 C 23.222656 -32.875 21.378906 -32.539062 19.671875 -31.875 C 17.972656 -31.207031 16.507812 -30.234375 15.28125 -28.953125 L 15.28125 -12.5625 C 16.457031 -11.382812 17.910156 -10.445312 19.640625 -9.75 C 21.367188 -9.0625 23.222656 -8.71875 25.203125 -8.71875 C 28.609375 -8.71875 31.484375 -9.878906 33.828125 -12.203125 C 36.179688 -14.523438 37.359375 -17.390625 37.359375 -20.796875 C 37.359375 -24.210938 36.171875 -27.078125 33.796875 -29.390625 C 31.421875 -31.710938 28.554688 -32.875 25.203125 -32.875 Z M 25.203125 -32.875 "/></g></g></g><g fill="#ffffff" fill-opacity="1"><g transform="translate(254.034075, 317.750019)"><g><path d="M 0.796875 -4.953125 L 6.234375 -12.234375 C 8.691406 -10.640625 11.015625 -9.453125 13.203125 -8.671875 C 15.390625 -7.898438 17.578125 -7.515625 19.765625 -7.515625 C 22.210938 -7.515625 24.171875 -7.914062 25.640625 -8.71875 C 27.109375 -9.519531 27.84375 -10.585938 27.84375 -11.921875 C 27.84375 -12.984375 27.425781 -13.832031 26.59375 -14.46875 C 25.769531 -15.113281 24.453125 -15.570312 22.640625 -15.84375 L 14.640625 -17.046875 C 10.535156 -17.679688 7.398438 -19.007812 5.234375 -21.03125 C 3.078125 -23.0625 2 -25.757812 2 -29.125 C 2 -33.125 3.570312 -36.320312 6.71875 -38.71875 C 9.863281 -41.113281 14.078125 -42.3125 19.359375 -42.3125 C 22.398438 -42.3125 25.359375 -41.875 28.234375 -41 C 31.117188 -40.125 33.867188 -38.832031 36.484375 -37.125 L 31.203125 -30.078125 C 28.910156 -31.410156 26.722656 -32.410156 24.640625 -33.078125 C 22.554688 -33.742188 20.445312 -34.078125 18.3125 -34.078125 C 16.34375 -34.078125 14.757812 -33.703125 13.5625 -32.953125 C 12.363281 -32.210938 11.765625 -31.226562 11.765625 -30 C 11.765625 -28.875 12.203125 -28.003906 13.078125 -27.390625 C 13.960938 -26.785156 15.414062 -26.347656 17.4375 -26.078125 L 25.4375 -24.875 C 29.488281 -24.289062 32.617188 -22.957031 34.828125 -20.875 C 37.046875 -18.800781 38.15625 -16.160156 38.15625 -12.953125 C 38.15625 -10.984375 37.6875 -9.15625 36.75 -7.46875 C 35.820312 -5.789062 34.554688 -4.335938 32.953125 -3.109375 C 31.359375 -1.890625 29.441406 -0.929688 27.203125 -0.234375 C 24.960938 0.449219 22.535156 0.796875 19.921875 0.796875 C 16.128906 0.796875 12.578125 0.304688 9.265625 -0.671875 C 5.960938 -1.660156 3.140625 -3.085938 0.796875 -4.953125 Z M 0.796875 -4.953125 "/></g></g></g><g fill="#ffffff" fill-opacity="1"><g transform="translate(293.310264, 317.750019)"><g><path d="M 47.125 -21.765625 C 47.125 -18.398438 46.5625 -15.316406 45.4375 -12.515625 C 44.320312 -9.710938 42.765625 -7.328125 40.765625 -5.359375 C 38.765625 -3.390625 36.335938 -1.867188 33.484375 -0.796875 C 30.628906 0.261719 27.46875 0.796875 24 0.796875 C 18.457031 0.796875 13.710938 -0.613281 9.765625 -3.4375 C 5.816406 -6.269531 3.015625 -10.320312 1.359375 -15.59375 L 12.078125 -19.6875 C 13.253906 -16.320312 14.828125 -13.8125 16.796875 -12.15625 C 18.773438 -10.507812 21.203125 -9.6875 24.078125 -9.6875 C 27.492188 -9.6875 30.253906 -10.832031 32.359375 -13.125 C 34.460938 -15.414062 35.515625 -18.398438 35.515625 -22.078125 L 35.515625 -56 L 47.125 -56 Z M 47.125 -21.765625 "/></g></g></g><g fill="#ffffff" fill-opacity="1"><g transform="translate(344.665268, 317.750019)"><g><path d="M 17.515625 0.71875 C 13.035156 0.71875 9.378906 -0.46875 6.546875 -2.84375 C 3.722656 -5.21875 2.3125 -8.296875 2.3125 -12.078125 C 2.3125 -16.023438 3.832031 -19.117188 6.875 -21.359375 C 9.914062 -23.597656 14.101562 -24.71875 19.4375 -24.71875 C 21.144531 -24.71875 22.851562 -24.582031 24.5625 -24.3125 C 26.269531 -24.050781 27.945312 -23.65625 29.59375 -23.125 L 29.59375 -26.078125 C 29.59375 -28.484375 28.847656 -30.296875 27.359375 -31.515625 C 25.867188 -32.742188 23.679688 -33.359375 20.796875 -33.359375 C 19.035156 -33.359375 17.128906 -33.078125 15.078125 -32.515625 C 13.023438 -31.960938 10.691406 -31.097656 8.078125 -29.921875 L 4.078125 -38 C 7.328125 -39.488281 10.484375 -40.609375 13.546875 -41.359375 C 16.617188 -42.109375 19.648438 -42.484375 22.640625 -42.484375 C 28.242188 -42.484375 32.601562 -41.132812 35.71875 -38.4375 C 38.84375 -35.75 40.40625 -31.953125 40.40625 -27.046875 L 40.40625 0 L 29.59375 0 L 29.59375 -2.875 C 27.832031 -1.65625 25.976562 -0.75 24.03125 -0.15625 C 22.09375 0.425781 19.921875 0.71875 17.515625 0.71875 Z M 12.796875 -12.3125 C 12.796875 -10.71875 13.488281 -9.453125 14.875 -8.515625 C 16.257812 -7.585938 18.101562 -7.125 20.40625 -7.125 C 22.21875 -7.125 23.882812 -7.347656 25.40625 -7.796875 C 26.925781 -8.253906 28.320312 -8.910156 29.59375 -9.765625 L 29.59375 -16 C 28.257812 -16.53125 26.859375 -16.914062 25.390625 -17.15625 C 23.929688 -17.394531 22.398438 -17.515625 20.796875 -17.515625 C 18.296875 -17.515625 16.335938 -17.046875 14.921875 -16.109375 C 13.503906 -15.179688 12.796875 -13.914062 12.796875 -12.3125 Z M 12.796875 -12.3125 "/></g></g></g><g fill="#ffffff" fill-opacity="1"><g transform="translate(389.060971, 317.750019)"><g><path d="M 4.3125 0 L 4.3125 -41.6875 L 15.28125 -41.6875 L 15.28125 -38.5625 C 16.769531 -39.84375 18.421875 -40.816406 20.234375 -41.484375 C 22.046875 -42.148438 24.019531 -42.484375 26.15625 -42.484375 C 28.820312 -42.484375 31.234375 -41.9375 33.390625 -40.84375 C 35.554688 -39.75 37.332031 -38.210938 38.71875 -36.234375 C 40.375 -38.265625 42.375 -39.8125 44.71875 -40.875 C 47.0625 -41.945312 49.648438 -42.484375 52.484375 -42.484375 C 57.117188 -42.484375 60.929688 -40.9375 63.921875 -37.84375 C 66.910156 -34.75 68.40625 -30.773438 68.40625 -25.921875 L 68.40625 0 L 57.4375 0 L 57.4375 -24.3125 C 57.4375 -26.925781 56.726562 -29.035156 55.3125 -30.640625 C 53.90625 -32.242188 52 -33.046875 49.59375 -33.046875 C 47.945312 -33.046875 46.441406 -32.679688 45.078125 -31.953125 C 43.722656 -31.234375 42.5625 -30.207031 41.59375 -28.875 C 41.65625 -28.394531 41.710938 -27.914062 41.765625 -27.4375 C 41.816406 -26.957031 41.84375 -26.453125 41.84375 -25.921875 L 41.84375 0 L 30.875 0 L 30.875 -24.3125 C 30.875 -26.925781 30.164062 -29.035156 28.75 -30.640625 C 27.34375 -32.242188 25.441406 -33.046875 23.046875 -33.046875 C 21.390625 -33.046875 19.921875 -32.722656 18.640625 -32.078125 C 17.359375 -31.441406 16.238281 -30.507812 15.28125 -29.28125 L 15.28125 0 Z M 4.3125 0 "/></g></g></g></svg>